<svg width="167" height="35" viewBox="0 0 167 35" fill="none" xmlns="http://www.w3.org/2000/svg">
<circle cx="22.1429" cy="17.1429" r="9.14286" stroke="#7F56D9" stroke-width="6"/>
<circle opacity="0.2" cx="31.8572" cy="17.1429" r="9.14286" stroke="white" stroke-width="6"/>
<path d="M55.1009 24.1428V9.59737H65.2429V12.4525H58.6165V15.4354H64.7244V18.2977H58.6165V21.2877H65.2429V24.1428H55.1009ZM71.829 24.2991C71.0241 24.2991 70.2925 24.0907 69.6344 23.6741C68.9762 23.2574 68.4507 22.6324 68.0577 21.7991C67.6647 20.9657 67.4682 19.9312 67.4682 18.6954C67.4682 17.4122 67.6718 16.3564 68.079 15.5278C68.4862 14.6992 69.0188 14.086 69.677 13.6883C70.3399 13.2905 71.0525 13.0917 71.8148 13.0917C72.3877 13.0917 72.8777 13.1911 73.2849 13.39C73.6921 13.5841 74.0283 13.8351 74.2935 14.1428C74.5586 14.4506 74.7598 14.7702 74.8972 15.1016H74.9682V9.59737H78.4412V24.1428H75.0037V22.3744H74.8972C74.7504 22.7105 74.542 23.0254 74.2722 23.319C74.0023 23.6125 73.6637 23.8493 73.2565 24.0292C72.8541 24.2091 72.3782 24.2991 71.829 24.2991ZM73.0364 21.5931C73.4578 21.5931 73.8176 21.4747 74.1159 21.238C74.4142 20.9965 74.6438 20.658 74.8048 20.2224C74.9658 19.7868 75.0463 19.2754 75.0463 18.6883C75.0463 18.0917 74.9658 17.578 74.8048 17.1471C74.6486 16.7162 74.4189 16.3848 74.1159 16.1528C73.8176 15.9208 73.4578 15.8048 73.0364 15.8048C72.6055 15.8048 72.2409 15.9231 71.9426 16.1599C71.6443 16.3966 71.417 16.7304 71.2608 17.1613C71.1093 17.5922 71.0335 18.1012 71.0335 18.6883C71.0335 19.2754 71.1116 19.7868 71.2679 20.2224C71.4241 20.658 71.6491 20.9965 71.9426 21.238C72.2409 21.4747 72.6055 21.5931 73.0364 21.5931ZM88.0191 16.9198V19.5974H81.2861V16.9198H88.0191ZM104.074 14.8673H100.523C100.476 14.5027 100.379 14.1736 100.232 13.88C100.085 13.5865 99.8911 13.3355 99.6496 13.1272C99.4081 12.9189 99.1216 12.7602 98.7902 12.6513C98.4635 12.5377 98.1013 12.4809 97.7036 12.4809C96.9981 12.4809 96.3896 12.6537 95.8783 12.9994C95.3716 13.345 94.981 13.8445 94.7064 14.4979C94.4365 15.1513 94.3016 15.9421 94.3016 16.8701C94.3016 17.836 94.4389 18.6457 94.7135 19.2991C94.9929 19.9477 95.3835 20.4378 95.8854 20.7692C96.392 21.0959 96.991 21.2593 97.6822 21.2593C98.0705 21.2593 98.4232 21.2096 98.7405 21.1102C99.0625 21.0107 99.3442 20.8663 99.5857 20.6769C99.8319 20.4828 100.033 20.2484 100.189 19.9738C100.35 19.6944 100.462 19.3796 100.523 19.0292L104.074 19.0505C104.013 19.6944 103.826 20.3289 103.513 20.9539C103.205 21.5789 102.782 22.1495 102.242 22.6655C101.702 23.1769 101.044 23.5841 100.267 23.8871C99.4957 24.1902 98.6103 24.3417 97.6112 24.3417C96.2949 24.3417 95.116 24.0529 94.0743 23.4752C93.0374 22.8928 92.2182 22.0453 91.6169 20.9326C91.0156 19.8199 90.7149 18.4657 90.7149 16.8701C90.7149 15.2697 91.0203 13.9132 91.6311 12.8005C92.2419 11.6878 93.0681 10.8426 94.1098 10.265C95.1515 9.68733 96.3186 9.3985 97.6112 9.3985C98.4919 9.3985 99.3063 9.52161 100.054 9.76782C100.803 10.0093 101.461 10.3644 102.029 10.8332C102.597 11.2972 103.059 11.8677 103.414 12.5448C103.769 13.2219 103.989 13.996 104.074 14.8673ZM106.486 24.1428V13.2337H109.959V24.1428H106.486ZM108.226 11.9624C107.738 11.9624 107.319 11.8014 106.969 11.4795C106.619 11.1528 106.443 10.7598 106.443 10.3005C106.443 9.84595 106.619 9.45769 106.969 9.13572C107.319 8.80901 107.738 8.64566 108.226 8.64566C108.718 8.64566 109.138 8.80901 109.483 9.13572C109.834 9.45769 110.009 9.84595 110.009 10.3005C110.009 10.7598 109.834 11.1528 109.483 11.4795C109.138 11.8014 108.718 11.9624 108.226 11.9624ZM112.57 24.1428V13.2337H115.943V15.2224H116.057C116.256 14.5027 116.58 13.9676 117.03 13.6173C117.48 13.2621 118.003 13.0846 118.599 13.0846C118.76 13.0846 118.926 13.0964 119.097 13.1201C119.267 13.139 119.426 13.1698 119.572 13.2124V16.2309C119.407 16.1741 119.189 16.1291 118.919 16.0959C118.654 16.0628 118.417 16.0462 118.209 16.0462C117.797 16.0462 117.425 16.1386 117.094 16.3232C116.767 16.5031 116.509 16.7565 116.32 17.0832C116.135 17.4051 116.043 17.7839 116.043 18.2195V24.1428H112.57ZM125.913 24.3488C124.763 24.3488 123.776 24.112 122.952 23.6386C122.133 23.1651 121.503 22.5069 121.063 21.6641C120.622 20.8166 120.402 19.8365 120.402 18.7238C120.402 17.6064 120.622 16.6263 121.063 15.7834C121.508 14.9359 122.14 14.2754 122.959 13.8019C123.783 13.3284 124.765 13.0917 125.906 13.0917C126.915 13.0917 127.793 13.274 128.541 13.6386C129.294 14.0031 129.881 14.5192 130.303 15.1869C130.729 15.8497 130.954 16.6286 130.977 17.5235H127.732C127.665 16.9648 127.476 16.5268 127.163 16.2096C126.856 15.8923 126.453 15.7337 125.956 15.7337C125.554 15.7337 125.201 15.8474 124.898 16.0746C124.595 16.2972 124.358 16.6286 124.188 17.069C124.022 17.5046 123.939 18.0443 123.939 18.6883C123.939 19.3322 124.022 19.8767 124.188 20.3218C124.358 20.7621 124.595 21.0959 124.898 21.3232C125.201 21.5458 125.554 21.657 125.956 21.657C126.278 21.657 126.562 21.5884 126.808 21.4511C127.059 21.3138 127.265 21.1125 127.426 20.8474C127.587 20.5775 127.689 20.2508 127.732 19.8673H130.977C130.944 20.7669 130.719 21.5529 130.303 22.2252C129.891 22.8976 129.311 23.4208 128.563 23.7948C127.819 24.1641 126.936 24.3488 125.913 24.3488ZM136.628 9.59737V24.1428H133.155V9.59737H136.628ZM144.338 24.3488C143.197 24.3488 142.212 24.1239 141.383 23.6741C140.559 23.2195 139.925 22.5732 139.48 21.7352C139.039 20.8923 138.819 19.8909 138.819 18.7309C138.819 17.604 139.042 16.6191 139.487 15.7763C139.932 14.9288 140.559 14.2707 141.369 13.8019C142.179 13.3284 143.133 13.0917 144.231 13.0917C145.008 13.0917 145.718 13.2124 146.362 13.4539C147.006 13.6954 147.562 14.0529 148.031 14.5263C148.5 14.9998 148.864 15.5846 149.125 16.2806C149.385 16.9719 149.515 17.765 149.515 18.6599V19.5263H140.034V17.5093H146.284C146.279 17.14 146.191 16.8109 146.021 16.5221C145.851 16.2333 145.616 16.0084 145.318 15.8474C145.024 15.6816 144.686 15.5988 144.302 15.5988C143.914 15.5988 143.566 15.6864 143.258 15.8616C142.95 16.032 142.707 16.2664 142.527 16.5647C142.347 16.8583 142.252 17.1921 142.243 17.5661V19.6187C142.243 20.0638 142.33 20.4544 142.505 20.7905C142.681 21.122 142.929 21.38 143.251 21.5647C143.573 21.7494 143.957 21.8417 144.402 21.8417C144.709 21.8417 144.989 21.7991 145.24 21.7138C145.491 21.6286 145.706 21.5031 145.886 21.3374C146.066 21.1717 146.201 20.9681 146.291 20.7266L149.48 20.819C149.347 21.5339 149.056 22.1566 148.606 22.6869C148.161 23.2124 147.576 23.622 146.852 23.9155C146.128 24.2044 145.289 24.3488 144.338 24.3488ZM153.642 24.3488C153.131 24.3488 152.693 24.1689 152.328 23.809C151.968 23.4492 151.791 23.0136 151.796 22.5022C151.791 22.0003 151.968 21.5718 152.328 21.2167C152.693 20.8568 153.131 20.6769 153.642 20.6769C154.125 20.6769 154.551 20.8568 154.921 21.2167C155.295 21.5718 155.484 22.0003 155.489 22.5022C155.484 22.8431 155.394 23.1532 155.219 23.4326C155.049 23.712 154.824 23.9345 154.544 24.1002C154.27 24.2659 153.969 24.3488 153.642 24.3488Z" fill="black"/>
</svg>
